<?xml version="1.0" encoding="utf-8"?>
<!-- Generator: Adobe Illustrator 18.0.0, SVG Export Plug-In . SVG Version: 6.00 Build 0)  -->
<!DOCTYPE svg PUBLIC "-//W3C//DTD SVG 1.1//EN" "http://www.w3.org/Graphics/SVG/1.1/DTD/svg11.dtd">
<svg version="1.1" id="Capa_1" xmlns="http://www.w3.org/2000/svg" xmlns:xlink="http://www.w3.org/1999/xlink" x="0px" y="0px"
	 viewBox="238.4 20.5 546.4 779.1" enable-background="new 238.4 20.5 546.4 779.1" xml:space="preserve">
<path fill="#e2e0e5	" d="M722.5,20.5H301.5c-34.4,0-63.1,27.9-63.1,63.1v652.9c0,34.4,27.9,63.1,63.1,63.1h420.2c34.4,0,63.1-27.9,63.1-63.1V83.6
	C784.8,48.3,756.9,20.5,722.5,20.5z"/>
<path fill="#e2e0e5" d="M1848.5,20.5h-421.1c-34.4,0-63.1,27.9-63.1,63.1v652.9c0,34.4,27.9,63.1,63.1,63.1h420.2c34.4,0,63.1-27.9,63.1-63.1V83.6
	C1910.8,48.3,1882.9,20.5,1848.5,20.5z M1499.6,135.2l-31.1,43.4c-2.5,3.3-6.6,3.3-8.2,0l-31.1-43.4c-1.6-1.6-1.6-4.1,0-5.7
	l31.1-43.4c2.5-3.3,6.6-3.3,8.2,0l31.1,43.4C1500.4,131.1,1500.4,133.5,1499.6,135.2z M1724.8,417l-77,108.1
	c-4.9,7.4-15.6,7.4-20.5,0l-77-108.1c-3.3-4.1-3.3-10.6,0-14.7l77-108.1c4.9-7.4,15.6-7.4,20.5,0l77,108.1
	C1728.1,406.3,1728.1,412.9,1724.8,417z M1847.7,690.6l-31.1,43.4c-2.5,3.3-6.6,3.3-8.2,0l-31.1-43.4c-1.6-1.6-1.6-4.1,0-5.7
	l31.1-43.4c2.5-3.3,6.6-3.3,8.2,0l31.1,43.4C1848.5,685.7,1848.5,688.1,1847.7,690.6z"/>
</svg>
