<?xml version="1.0" encoding="utf-8"?>
<!-- Generator: Adobe Illustrator 18.0.0, SVG Export Plug-In . SVG Version: 6.00 Build 0)  -->
<!DOCTYPE svg PUBLIC "-//W3C//DTD SVG 1.1//EN" "http://www.w3.org/Graphics/SVG/1.1/DTD/svg11.dtd">
<svg version="1.1" id="Capa_1" xmlns="http://www.w3.org/2000/svg" xmlns:xlink="http://www.w3.org/1999/xlink" x="0px" y="0px"
	 viewBox="238.4 20.5 546.4 779.1" enable-background="new 238.4 20.5 546.4 779.1" xml:space="preserve">
<g>
	<path fill="#fe5e54" d="M342.8,111.8c12.3,0,22.1,8.2,25.4,18.8c3.3-10.6,13.1-18.8,25.4-18.8c14.7,0,26.2,12.3,26.2,26.2
		c0,39.3-52.4,68.8-52.4,68.8S315,171.6,315,138C315.8,124.1,328.1,111.8,342.8,111.8z"/>
	<path fill="#fe5e54" d="M454.2,301.9c27,0,50,18,57.3,42.6c7.4-24.6,30.3-42.6,57.3-42.6c33.6,0,60.6,27,60.6,60.6
		c0,88.5-118,155.6-118,155.6s-118-80.3-118-156.5C393.6,328.9,420.7,301.9,454.2,301.9z"/>
	<path fill="#fe5e54" d="M655,689.4c-3.3,10.6-13.1,18.8-25.4,18.8c-14.7,0-26.2-12.3-26.2-26.2c0-39.3,52.4-68.8,52.4-68.8
		s52.4,35.2,52.4,68.8c0,14.7-12.3,26.2-26.2,26.2C668.9,708.2,658.2,700,655,689.4z"/>
</g>

</svg>
