<?xml version="1.0" encoding="utf-8"?>
<!-- Generator: Adobe Illustrator 18.0.0, SVG Export Plug-In . SVG Version: 6.00 Build 0)  -->
<!DOCTYPE svg PUBLIC "-//W3C//DTD SVG 1.1//EN" "http://www.w3.org/Graphics/SVG/1.1/DTD/svg11.dtd">
<svg version="1.1" id="Capa_1" xmlns="http://www.w3.org/2000/svg" xmlns:xlink="http://www.w3.org/1999/xlink" x="0px" y="0px"
	 viewBox="120.3 17 784.4 803" enable-background="new 120.3 17 784.4 803" xml:space="preserve">
<title>Dead-Emoji-Emotion-Face-Expression-Feeling</title>
<g>
	<path fill="#1F2833" d="M651.5,607.9H374.5c-9.1,0-16.5,7.4-16.5,16.5s7.4,16.5,16.5,16.5h276.9c9.1,0,16.5-7.4,16.5-16.5
		S660.6,607.9,651.5,607.9z"/>
	<path fill="#1F2833" d="M670.1,430.7c-6.4-6.4-16.9-6.4-23.3,0L625.5,452l-21.3-21.3c-6.4-6.4-16.9-6.4-23.3,0s-6.4,16.9,0,23.3
		l21.3,21.3l-21.3,21.3c-6.4,6.4-6.4,16.9,0,23.3c3.2,3.2,7.4,4.8,11.7,4.8c4.2,0,8.4-1.6,11.7-4.8l21.3-21.3l21.3,21.3
		c3.2,3.2,7.4,4.8,11.7,4.8c4.2,0,8.4-1.6,11.7-4.8c6.4-6.4,6.4-16.9,0-23.3l-21.3-21.3l21.3-21.3
		C676.6,447.6,676.6,437.1,670.1,430.7z"/>
	<path fill="#1F2833" d="M379.3,519.9l21.3-21.3l21.3,21.3c3.2,3.2,7.4,4.8,11.7,4.8s8.4-1.6,11.7-4.8c6.4-6.4,6.4-16.9,0-23.3
		l-21.3-21.3l21.3-21.3c6.4-6.4,6.4-16.9,0-23.3c-6.4-6.4-16.9-6.4-23.3,0L400.5,452l-21.3-21.3c-6.4-6.4-16.9-6.4-23.3,0
		c-6.4,6.4-6.4,16.9,0,23.3l21.3,21.3l-21.3,21.3c-6.4,6.4-6.4,16.9,0,23.3c3.2,3.2,7.4,4.8,11.7,4.8S376,523.2,379.3,519.9z"/>
	<path fill="#1F2833" d="M855.5,537.5c15-18.4,24.1-42.3,24.1-68.4c0-33.2-14.7-62.8-37.7-82.2C841.5,303.3,817.7,17,515,17
		c-301.3,0-328.4,286.5-329.7,372.3c-21.4,19.3-34.9,47.9-34.9,79.7c0,24.9,8.3,47.8,22.1,65.8c-58,50.5-69.7,137.6-24.7,202
		c48.2,69,143.2,85.9,212.1,37.7c0.5-0.4,1.1-0.8,1.6-1.2c45.1,30.1,98.1,46.3,153.5,46.3c54.4,0,106.5-15.6,151-44.6
		c62.8,43.4,149.6,33.6,201-25.2C921.6,687.5,916.2,593.2,855.5,537.5z M237.7,451.6c-7.9-6.5-15.9-10.6-24-12.2
		c-9-1.7-17.6,4.1-19.3,13.1c-1.7,8.9,4.1,17.6,13.1,19.3c9.8,1.9,23.1,19.4,30.2,32.5v35.8c-31-6.6-54.3-35.9-54.3-71
		c0-35,23.4-64.4,54.3-71V451.6z M759.3,542.4c0,134.7-109.6,244.3-244.3,244.3c-134.7,0-244.3-109.6-244.3-244.3V397
		c41.4,0.1,154-2.3,255.6-28.1c57.4-14.6,102.9-34.5,135.5-59.3c30.2-23,49.5-50.2,57.8-81.2c2.6,3.6,5.3,7.7,7.9,12.3
		c14.5,24.8,31.8,69.2,31.8,139.7V542.4z M792.3,540.1v-35.8c7.2-13.1,20.4-30.6,30.2-32.5c8.9-1.7,14.8-10.4,13.1-19.3
		s-10.4-14.8-19.3-13.1c-8.1,1.6-16.2,5.7-24,12.2v-53.5c31,6.6,54.3,35.9,54.3,71C846.7,504.1,823.3,533.4,792.3,540.1z"/>
</g>
</svg>
