<?xml version="1.0" encoding="utf-8"?>
<!-- Generator: Adobe Illustrator 18.0.0, SVG Export Plug-In . SVG Version: 6.00 Build 0)  -->
<!DOCTYPE svg PUBLIC "-//W3C//DTD SVG 1.1//EN" "http://www.w3.org/Graphics/SVG/1.1/DTD/svg11.dtd">
<svg version="1.1" id="Capa_1" xmlns="http://www.w3.org/2000/svg" xmlns:xlink="http://www.w3.org/1999/xlink" x="0px" y="0px"
	 viewBox="238.4 20.5 546.4 779.1" enable-background="new 238.4 20.5 546.4 779.1" xml:space="preserve">
<path fill="#fe5e54" d="M373.6,135.2l-31.1,43.4c-2.5,3.3-6.6,3.3-8.2,0l-31.1-43.4c-1.6-1.6-1.6-4.1,0-5.7L334.2,86
	c2.5-3.3,6.6-3.3,8.2,0l31.1,43.4C374.4,131.1,374.4,133.5,373.6,135.2z M598.8,417l-77,108.1c-4.9,7.4-15.6,7.4-20.5,0l-77-108.1
	c-3.3-4.1-3.3-10.6,0-14.7l77-108.1c4.9-7.4,15.6-7.4,20.5,0l77,108.1C602.1,406.3,602.1,412.9,598.8,417z M721.7,690.6L690.6,734
	c-2.5,3.3-6.6,3.3-8.2,0l-31.1-43.4c-1.6-1.6-1.6-4.1,0-5.7l31.1-43.4c2.5-3.3,6.6-3.3,8.2,0l31.1,43.4
	C722.5,685.7,722.5,688.1,721.7,690.6z"/>
</svg>
