<svg xmlns:dc="http://purl.org/dc/elements/1.1/" xmlns:cc="http://creativecommons.org/ns#" xmlns:rdf="http://www.w3.org/1999/02/22-rdf-syntax-ns#" xmlns:svg="http://www.w3.org/2000/svg" xmlns="http://www.w3.org/2000/svg" xmlns:sodipodi="http://sodipodi.sourceforge.net/DTD/sodipodi-0.dtd" xmlns:inkscape="http://www.inkscape.org/namespaces/inkscape" version="1.1" viewBox="0 0 12.7 15.875" x="0px" y="0px"><g style="" display="inline"><path style="color:#000000;font-style:normal;font-variant:normal;font-weight:normal;font-stretch:normal;font-size:medium;line-height:normal;font-family:sans-serif;font-variant-ligatures:normal;font-variant-position:normal;font-variant-caps:normal;font-variant-numeric:normal;font-variant-alternates:normal;font-feature-settings:normal;text-indent:0;text-align:start;text-decoration:none;text-decoration-line:none;text-decoration-style:solid;text-decoration-color:#000000;letter-spacing:normal;word-spacing:normal;text-transform:none;writing-mode:lr-tb;direction:ltr;text-orientation:mixed;dominant-baseline:auto;baseline-shift:baseline;text-anchor:start;white-space:normal;shape-padding:0;clip-rule:nonzero;display:inline;overflow:visible;visibility:visible;opacity:1;isolation:auto;mix-blend-mode:normal;color-interpolation:sRGB;color-interpolation-filters:linearRGB;solid-color:#000000;solid-opacity:1;vector-effect:none;fill:#fff;fill-opacity:1;fill-rule:nonzero;stroke:none;stroke-width:1.05833328;stroke-linecap:round;stroke-linejoin:round;stroke-miterlimit:4;stroke-dasharray:none;stroke-dashoffset:0;stroke-opacity:1;paint-order:normal;color-rendering:auto;image-rendering:auto;shape-rendering:auto;text-rendering:auto;enable-background:accumulate" d="m 6.7531493,1.8910945 c -1.233347,0 -2.362541,0.498758 -3.175517,1.304313 l -2.269629,2.249992 a 0.52921955,0.52921955 0 0 0 -0.0021,0 c -0.49789202,0.493552 -0.49789202,1.315123 0,1.808675 l 2.271696,2.249992 c 0.813174,0.8057535 1.942506,1.3048305 3.175517,1.3048305 1.232973,0 2.362697,-0.498916 3.176033,-1.3048305 l 1.6794837,-1.663464 -5.16e-4,-5.17e-4 c 0.208678,-0.20381 0.212996,-0.537982 0.0098,-0.747241 -0.207434,-0.213592 -0.550042,-0.21402 -0.758093,-0.001 l -1.6748327,1.660364 c -0.620305,0.614644 -1.483927,0.997872 -2.431893,0.997872 -0.947931,0 -1.811135,-0.383291 -2.431376,-0.997872 l -2.269629,-2.249992 c -0.0895,-0.09028 -0.0895,-0.214615 0,-0.304891 l 2.269629,-2.249992 c 0.620214,-0.614553 1.483362,-0.997872 2.431376,-0.997872 0.948049,0 1.811616,0.383256 2.431893,0.997872 l 1.6753497,1.660364 -5.17e-4,5.17e-4 c 0.208051,0.212987 0.550659,0.212558 0.758093,-10e-4 0.203178,-0.209259 0.19886,-0.543432 -0.0098,-0.747241 L 9.9291493,3.1954755 c -0.81309,-0.805716 -1.942723,-1.304313 -3.176033,-1.304313 z m 0,2.341459 c -1.162735,0 -2.117183,0.954449 -2.117183,2.117184 0,1.162734 0.954448,2.117183 2.117183,2.117183 1.162735,0 2.117183,-0.954449 2.117183,-2.117183 0,-0.581368 -0.238707,-1.113589 -0.62115,-1.496033 -0.382444,-0.382444 -0.914666,-0.621151 -1.496033,-0.621151 z m 0,1.05885 c 0.295384,0 0.556156,0.118457 0.748275,0.310576 0.192118,0.192118 0.310575,0.452373 0.310575,0.747758 0,0.590769 -0.468081,1.05885 -1.05885,1.05885 -0.590769,0 -1.058333,-0.468081 -1.058333,-1.05885 0,-0.590769 0.467564,-1.058334 1.058333,-1.058334 z"/></g><text x="0" y="27.7" fill="#000000" font-size="5px" font-weight="bold" font-family="'Helvetica Neue', Helvetica, Arial-Unicode, Arial, Sans-serif">Created by Ranah Pixel Studio</text><text x="0" y="32.7" fill="#000000" font-size="5px" font-weight="bold" font-family="'Helvetica Neue', Helvetica, Arial-Unicode, Arial, Sans-serif">from the Noun Project</text></svg>