<?xml version="1.0" encoding="utf-8"?>
<!-- Generator: Adobe Illustrator 18.0.0, SVG Export Plug-In . SVG Version: 6.00 Build 0)  -->
<!DOCTYPE svg PUBLIC "-//W3C//DTD SVG 1.1//EN" "http://www.w3.org/Graphics/SVG/1.1/DTD/svg11.dtd">
<svg version="1.1" id="Capa_1" xmlns="http://www.w3.org/2000/svg" xmlns:xlink="http://www.w3.org/1999/xlink" x="0px" y="0px"
	 viewBox="233.5 219.6 557.1 584.9" enable-background="new 233.5 219.6 557.1 584.9" xml:space="preserve">
<g>
	<path fill="#1F2833" d="M790.5,506.3h-33.6c-86,0-152.4-31.1-152.4-107.3v-82.7c0-47.5-33.6-89.3-80.3-95.8
		c-56.5-7.4-105.7,36.9-105.7,91.8v86c0,76.2-66.4,107.3-151.6,107.3h-33.6v44.2c0,9,7.4,16.4,16.4,16.4h12.3
		c7.4,0,13.9,4.9,15.6,12.3c3.3,9.8,6.6,20.5,11.5,29.5c3.3,7.4,0,16.4-7.4,20.5l-11.5,6.6c-8.2,4.1-10.6,14.7-5.7,22.9l14.7,24.6
		c4.9,7.4,13.9,9.8,22.1,5.7l19.7-10.6c6.6-3.3,14.7-2.5,19.7,3.3c6.6,6.6,13.9,13.1,21.3,18.8c6.6,4.9,7.4,13.9,3.3,21.3l-10.6,18
		c-4.9,8.2-1.6,18,5.7,22.9l26.2,14.7c7.4,4.1,17.2,1.6,22.1-5.7l13.1-22.1c4.1-6.6,12.3-9,18.8-7.4c8.2,2.5,17.2,4.9,26.2,6.6
		c7.4,1.6,13.1,8.2,13.1,15.6v24.6c0,9,7.4,16.4,16.4,16.4h30.3c9,0,16.4-7.4,16.4-16.4v-24.6c0-8.2,5.7-13.9,13.1-15.6
		c9-1.6,18-4.1,26.2-6.6c7.4-2.5,15.6,0.8,18.8,7.4l13.1,22.1c4.9,7.4,13.9,9.8,22.1,5.7l26.2-14.7c8.2-4.1,10.6-14.7,5.7-22.9
		l-10.6-18c-4.1-6.6-2.5-16.4,3.3-21.3c7.4-5.7,14.7-12.3,21.3-18.8c4.9-4.9,13.1-6.6,19.7-3.3l19.7,10.6c7.4,4.1,17.2,1.6,22.1-5.7
		l14.7-24.6c4.9-8.2,1.6-18-5.7-22.9l-11.5-6.6c-7.4-4.1-10.6-13.1-7.4-20.5c4.1-9.8,8.2-19.7,11.5-29.5c2.5-7.4,8.2-12.3,15.6-12.3
		h12.3c9,0,16.4-7.4,16.4-16.4L790.5,506.3L790.5,506.3z M475.1,392.4c-14.7,0-26.2-11.5-26.2-26.2c0-3.3,0.8-5.7,1.6-9
		c13.1,10.6,29.5,19.7,46.7,22.9C492.3,387.5,484.1,392.4,475.1,392.4z M548.9,392.4c-9,0-17.2-4.9-22.1-11.5
		c17.2-3.3,33.6-12.3,46.7-22.1c0.8,2.5,1.6,4.9,1.6,7.4C575.1,380.1,563.6,392.4,548.9,392.4z"/>
</g>
</svg>
