<?xml version="1.0" encoding="utf-8"?>
<!-- Generator: Adobe Illustrator 18.0.0, SVG Export Plug-In . SVG Version: 6.00 Build 0)  -->
<!DOCTYPE svg PUBLIC "-//W3C//DTD SVG 1.1//EN" "http://www.w3.org/Graphics/SVG/1.1/DTD/svg11.dtd">
<svg version="1.1" id="Capa_1" xmlns="http://www.w3.org/2000/svg" xmlns:xlink="http://www.w3.org/1999/xlink" x="0px" y="0px"
	 viewBox="228.4 189 567.1 504.1" enable-background="new 228.4 189 567.1 504.1" xml:space="preserve">
<title>Heart</title>
<g>
	<g>
		<polygon fill="#FA8072" points="606.5,252.1 606.5,315.1 543.5,315.1 543.5,378.1 480.5,378.1 480.5,315.1 417.5,315.1 
			417.5,252.1 291.4,252.1 291.4,441.1 354.5,441.1 354.5,504.1 417.5,504.1 417.5,567.1 480.5,567.1 480.5,630.2 543.5,630.2 
			543.5,567.1 606.5,567.1 606.5,504.1 669.5,504.1 669.5,441.1 732.6,441.1 732.6,252.1 		"/>
		<rect x="543.5" y="252.1" fill="#1F2833" width="63" height="63"/>
		<rect x="480.5" y="315.1" fill="#1F2833" width="63" height="63"/>
		<rect x="606.5" y="189" fill="#1F2833" width="126" height="63"/>
		<rect x="480.5" y="630.2" fill="#1F2833" width="63" height="63"/>
		<rect x="417.5" y="252.1" fill="#1F2833" width="63" height="63"/>
		<rect x="291.4" y="189" fill="#1F2833" width="126" height="63"/>
		<rect x="228.4" y="252.1" fill="#1F2833" width="63" height="189"/>
		<rect x="417.5" y="567.1" fill="#1F2833" width="63" height="63"/>
		<rect x="606.5" y="504.1" fill="#1F2833" width="63" height="63"/>
		<rect x="669.5" y="441.1" fill="#1F2833" width="63" height="63"/>
		<rect x="732.6" y="252.1" fill="#1F2833" width="63" height="189"/>
		<rect x="291.4" y="441.1" fill="#1F2833" width="63" height="63"/>
		<rect x="543.5" y="567.1" fill="#1F2833" width="63" height="63"/>
		<rect x="354.5" y="504.1" fill="#1F2833" width="63" height="63"/>
	</g>
</g>
</svg>
