<?xml version="1.0" encoding="utf-8"?>
<!-- Generator: Adobe Illustrator 25.4.1, SVG Export Plug-In . SVG Version: 6.00 Build 0)  -->
<svg version="1.1" id="Layer_1" xmlns="http://www.w3.org/2000/svg" xmlns:xlink="http://www.w3.org/1999/xlink" x="0px" y="0px"
	 viewBox="0 0 32 32" style="enable-background:new 0 0 32 32;" xml:space="preserve">
<style type="text/css">
	.st0{fill:#108690;}
</style>
<path class="st0" d="M27.5,15.4c0.8-2.6,0.6-5.4-0.6-7.9L26,5.7c-0.2-0.3-0.6-0.5-0.9-0.4l-2.2,0.8c-2,0.7-3.8,1.9-5.3,3.5
	c-0.5-0.1-1.1-0.1-1.6-0.1c-0.6,0-1.1,0-1.6,0.1c-1.4-1.6-3.2-2.8-5.3-3.5L6.9,5.4C6.6,5.2,6.2,5.4,6,5.7L5.2,7.5
	C4,10,3.8,12.8,4.5,15.4c-0.4,0.8-0.6,1.7-0.6,2.7c0,4.7,5.4,8.6,12.1,8.6s12.1-3.8,12.1-8.6C28.1,17.2,27.9,16.3,27.5,15.4z
	 M18.1,21.7l-1.6,1.4c-0.2,0.1-0.3,0.2-0.5,0.2c-0.2,0-0.4-0.1-0.5-0.2l-1.6-1.4c-0.6-0.5-0.2-1.4,0.5-1.4h3.2
	C18.3,20.3,18.7,21.2,18.1,21.7z"/>
</svg>
