<?xml version="1.0" encoding="utf-8"?>
<!-- Generator: Adobe Illustrator 18.0.0, SVG Export Plug-In . SVG Version: 6.00 Build 0)  -->
<!DOCTYPE svg PUBLIC "-//W3C//DTD SVG 1.1//EN" "http://www.w3.org/Graphics/SVG/1.1/DTD/svg11.dtd">
<svg version="1.1" id="Capa_1" xmlns="http://www.w3.org/2000/svg" xmlns:xlink="http://www.w3.org/1999/xlink" x="0px" y="0px"
	 viewBox="238.4 20.5 546.4 779.1" enable-background="new 238.4 20.5 546.4 779.1" xml:space="preserve">
<g>
	<path fill="#45a29e" d="M533.7,530.4h-44.2l13.1-78.6c-10.6,10.6-35.2,33.6-55.7,33.6c-31.9,0-48.3-25.4-48.3-57.3
		c0.8-84.4,113-148.3,113-148.3s112.2,76.2,112.2,149.1c0,31.9-16.4,57.3-48.3,57.3c-20.5,0-46.7-26.2-55.7-36L533.7,530.4z"/>
	<path fill="#45a29e" d="M371.5,215h-18l5.7-31.9c-4.1,4.1-14.7,13.9-22.9,13.9c-13.1,0-19.7-10.6-19.7-23.8
		c0-35.2,45.9-61.4,45.9-61.4s45.9,31.1,45.9,61.4c0,13.1-6.6,23.8-19.7,23.8c-8.2,0-18.8-10.6-22.9-14.7L371.5,215z"/>
	<path fill="#45a29e" d="M634.5,623c8.2,0,18.8,10.6,22.9,14.7l-5.7-32.8h18l-5.7,31.9c4.1-4.1,14.7-13.9,22.9-13.9
		c13.1,0,19.7,10.6,19.7,23.8c0,35.2-45.9,61.4-45.9,61.4s-45.9-31.1-45.9-61.4C614.8,633.7,621.4,623,634.5,623z"/>
</g>
</svg>
