<?xml version="1.0" encoding="utf-8"?>
<!-- Generator: Adobe Illustrator 18.0.0, SVG Export Plug-In . SVG Version: 6.00 Build 0)  -->
<!DOCTYPE svg PUBLIC "-//W3C//DTD SVG 1.1//EN" "http://www.w3.org/Graphics/SVG/1.1/DTD/svg11.dtd">
<svg version="1.1" id="Capa_1" xmlns="http://www.w3.org/2000/svg" xmlns:xlink="http://www.w3.org/1999/xlink" x="0px" y="0px"
	 viewBox="238.4 20.5 546.4 779.1" enable-background="new 238.4 20.5 546.4 779.1" xml:space="preserve">
<g>
	<path fill="#45a29e" d="M680.8,681.6c0,14.7-12.3,27-27,27c-14.7,0-27-12.3-27-27c0-3.3,0.8-5.7,1.6-9c-0.8,0-0.8,0-1.6,0
		c-14.7,0-27-12.3-27-27c0-14.7,12.3-27,27-27c9,0,17.2,4.9,22.1,12.3l-4.1-25.4h17.2l-4.1,24.6c4.9-7.4,13.1-11.5,22.1-11.5
		c14.7,0,27,12.3,27,27c0,14.7-12.3,27-27,27c-0.8,0-0.8,0-1.6,0C680.8,675.8,680.8,678.3,680.8,681.6z"/>
	<path fill="#45a29e" d="M546.4,525.1h-42.6l9.8-60.6c-11.5,17.2-31.1,27.9-53.2,27.9c-36,0-64.7-29.5-64.7-64.7
		c0-36,29.5-64.7,64.7-64.7c0.8,0,2.5,0,3.3,0c-2.5-6.6-3.3-13.9-3.3-21.3c0-36,29.5-64.7,64.7-64.7c36,0,64.7,29.5,64.7,64.7
		c0,7.4-1.6,14.7-3.3,21.3c0.8,0,1.6,0,3.3,0c36,0,64.7,29.5,64.7,64.7c0,36-29.5,64.7-64.7,64.7c-22.9,0-42.6-11.5-54.1-28.7
		L546.4,525.1z"/>
	<path fill="#45a29e" d="M378.5,214.6h-17.2l4.1-24.6c-4.9,7.4-13.1,11.5-22.1,11.5c-14.7,0-27-12.3-27-27c0-14.7,12.3-27,27-27
		c0.8,0,0.8,0,1.6,0c-0.8-2.5-1.6-5.7-1.6-9c0-14.7,12.3-27,27-27s27,12.3,27,27c0,3.3-0.8,5.7-1.6,9c0.8,0,0.8,0,1.6,0
		c14.7,0,27,12.3,27,27c0,14.7-12.3,27-27,27c-9,0-17.2-4.9-22.1-12.3L378.5,214.6z"/>
</g>
</svg>
