<svg xmlns:dc="http://purl.org/dc/elements/1.1/" xmlns:cc="http://creativecommons.org/ns#" xmlns:rdf="http://www.w3.org/1999/02/22-rdf-syntax-ns#" xmlns:svg="http://www.w3.org/2000/svg" xmlns="http://www.w3.org/2000/svg" xmlns:sodipodi="http://sodipodi.sourceforge.net/DTD/sodipodi-0.dtd" xmlns:inkscape="http://www.inkscape.org/namespaces/inkscape" version="1.1" viewBox="0 0 12.7 15.875" x="0px" y="0px"><g style="" display="inline"><path style="color:#000000;font-style:normal;font-variant:normal;font-weight:normal;font-stretch:normal;font-size:medium;line-height:normal;font-family:sans-serif;font-variant-ligatures:normal;font-variant-position:normal;font-variant-caps:normal;font-variant-numeric:normal;font-variant-alternates:normal;font-feature-settings:normal;text-indent:0;text-align:start;text-decoration:none;text-decoration-line:none;text-decoration-style:solid;text-decoration-color:#000000;letter-spacing:normal;word-spacing:normal;text-transform:none;writing-mode:lr-tb;direction:ltr;text-orientation:mixed;dominant-baseline:auto;baseline-shift:baseline;text-anchor:start;white-space:normal;shape-padding:0;clip-rule:nonzero;display:inline;overflow:visible;visibility:visible;opacity:1;isolation:auto;mix-blend-mode:normal;color-interpolation:sRGB;color-interpolation-filters:linearRGB;solid-color:#000000;solid-opacity:1;vector-effect:none;fill:#000000;fill-opacity:1;fill-rule:nonzero;stroke:none;stroke-width:1.05833328;stroke-linecap:butt;stroke-linejoin:miter;stroke-miterlimit:4;stroke-dasharray:none;stroke-dashoffset:0;stroke-opacity:1;color-rendering:auto;image-rendering:auto;shape-rendering:auto;text-rendering:auto;enable-background:accumulate" d="m 11.642076,1.190905 c -0.137616,-2.1e-4 -0.27528,0.0527 -0.379305,0.15916 -1.9823767,1.98523 -3.9652197,3.96935 -5.9484727,5.95261 -0.165627,0.16562 -0.409017,0.16562 -0.574643,0 l -1.185974,-1.18649 c -0.208052,-0.21299 -0.550659,-0.21253 -0.758092,0.001 -0.203179,0.20926 -0.199377,0.54394 0.0093,0.74776 l 1.186492,1.18648 c 0.56727,0.56728 1.504437,0.56727 2.071709,0 1.984666,-1.98233 3.9643157,-3.96973 5.9484727,-5.9526 0.208632,-0.20383 0.212983,-0.53798 0.0098,-0.74724 -0.103735,-0.10678 -0.24169,-0.16051 -0.379305,-0.16072 z m -6.6150997,1.3224 c -2.477862,0 -4.49791599,2.02005 -4.49791599,4.49791 0,2.47786 2.02005399,4.49792 4.49791599,4.49792 2.432172,0 4.419098,-1.94745 4.491715,-4.36253 0.0035,-0.29772 -0.239726,-0.53972 -0.537435,-0.53536 -0.291637,0.004 -0.524856,0.24369 -0.521414,0.53536 -0.07112,1.84214 -1.572662,3.3042 -3.432866,3.3042 -1.905897,0 -3.439067,-1.53369 -3.439067,-3.43959 0,-1.9059 1.53317,-3.43958 3.439067,-3.43958 0.571178,0 1.106131,0.14048 1.578198,0.38551 0.256084,0.15189 0.586139,0.0647 0.731223,-0.19534 0.142092,-0.25472 0.05123,-0.57648 -0.203089,-0.71934 -0.629147,-0.33604 -1.346091,-0.52916 -2.106332,-0.52916 z"/></g><text x="0" y="27.7" fill="#000000" font-size="5px" font-weight="bold" font-family="'Helvetica Neue', Helvetica, Arial-Unicode, Arial, Sans-serif">Created by Ranah Pixel Studio</text><text x="0" y="32.7" fill="#000000" font-size="5px" font-weight="bold" font-family="'Helvetica Neue', Helvetica, Arial-Unicode, Arial, Sans-serif">from the Noun Project</text></svg>