<svg xmlns:dc="http://purl.org/dc/elements/1.1/" xmlns:cc="http://creativecommons.org/ns#" xmlns:rdf="http://www.w3.org/1999/02/22-rdf-syntax-ns#" xmlns:svg="http://www.w3.org/2000/svg" xmlns="http://www.w3.org/2000/svg" xmlns:sodipodi="http://sodipodi.sourceforge.net/DTD/sodipodi-0.dtd" xmlns:inkscape="http://www.inkscape.org/namespaces/inkscape" version="1.1" viewBox="0 0 12.7 15.875" x="0px" y="0px"><g style="" display="inline"><path style="color:#000000;font-style:normal;font-variant:normal;font-weight:normal;font-stretch:normal;font-size:medium;line-height:normal;font-family:sans-serif;font-variant-ligatures:normal;font-variant-position:normal;font-variant-caps:normal;font-variant-numeric:normal;font-variant-alternates:normal;font-feature-settings:normal;text-indent:0;text-align:start;text-decoration:none;text-decoration-line:none;text-decoration-style:solid;text-decoration-color:#000000;letter-spacing:normal;word-spacing:normal;text-transform:none;writing-mode:lr-tb;direction:ltr;text-orientation:mixed;dominant-baseline:auto;baseline-shift:baseline;text-anchor:start;white-space:normal;shape-padding:0;clip-rule:nonzero;display:inline;overflow:visible;visibility:visible;opacity:1;isolation:auto;mix-blend-mode:normal;color-interpolation:sRGB;color-interpolation-filters:linearRGB;solid-color:#000000;solid-opacity:1;vector-effect:none;fill:#fff;fill-opacity:1;fill-rule:nonzero;stroke:none;stroke-width:1.05833328;stroke-linecap:round;stroke-linejoin:miter;stroke-miterlimit:4;stroke-dasharray:none;stroke-dashoffset:0;stroke-opacity:1;color-rendering:auto;image-rendering:auto;shape-rendering:auto;text-rendering:auto;enable-background:accumulate" d="m 6.355666,0.52916201 c -0.407457,-5.3e-5 -0.815053,0.153657 -1.122929,0.461471 C 3.604782,2.619138 1.823533,4.400354 0.37308601,5.850801 c -0.208645,0.203808 -0.212997,0.537982 -0.0098,0.747241 0.207433,0.213588 0.550043,0.214019 0.75809299,10e-4 C 2.85416,4.866097 4.254711,3.466226 5.981548,1.73939 c 0.211194,-0.211152 0.537185,-0.211253 0.748274,0 1.616267,1.616267 3.232534,3.232533 4.8488,4.8488 0.20805,0.212985 0.550659,0.212555 0.758093,-0.001 0.203178,-0.209259 0.198861,-0.543433 -0.0098,-0.747241 C 10.710756,4.223746 9.094812,2.60733 7.478632,0.99114901 7.170907,0.68318501 6.76316,0.52921501 6.355703,0.52916201 Z M 2.390533,6.893631 c -0.291637,0.0043 -0.525351,0.243719 -0.521932,0.535368 -1.9e-4,1.169955 5.17e-4,2.339909 5.17e-4,3.509863 7.4e-5,0.696319 0.603107,1.231903 1.28726,1.231967 H 4.36354 c 0.684153,-6.4e-5 1.287185,-0.535648 1.28726,-1.231967 V 9.621113 c 9e-6,-0.08174 0.07643,-0.175685 0.228409,-0.175699 h 0.942578 c 0.151981,1.4e-5 0.228401,0.09396 0.22841,0.175699 v 1.317749 c 7.4e-5,0.696318 0.603108,1.231903 1.28726,1.231967 h 1.207162 c 0.684152,-6.4e-5 1.287185,-0.535649 1.28726,-1.231967 V 7.428999 C 10.835379,7.131281 10.592667,6.889279 10.29496,6.893631 10.003322,6.897931 9.769609,7.13735 9.773028,7.428999 v 3.509863 c -9e-6,0.08174 -0.07643,0.175686 -0.228409,0.1757 H 8.337457 c -0.151981,-1.4e-5 -0.228401,-0.09396 -0.22841,-0.1757 V 9.621113 C 8.108974,8.924795 7.50594,8.389212 6.821787,8.389147 H 5.879209 c -0.684153,6.5e-5 -1.287185,0.535647 -1.28726,1.231966 v 1.317749 c -9e-6,0.08174 -0.07643,0.175686 -0.228409,0.1757 H 3.156378 c -0.15198,-1.4e-5 -0.228401,-0.09396 -0.22841,-0.1757 C 2.927898,9.768908 2.927452,8.598954 2.927452,7.428999 2.930952,7.131281 2.68824,6.889279 2.390533,6.893631 Z"/></g><text x="0" y="27.7" fill="#000000" font-size="5px" font-weight="bold" font-family="'Helvetica Neue', Helvetica, Arial-Unicode, Arial, Sans-serif">Created by Ranah Pixel Studio</text><text x="0" y="32.7" fill="#000000" font-size="5px" font-weight="bold" font-family="'Helvetica Neue', Helvetica, Arial-Unicode, Arial, Sans-serif">from the Noun Project</text></svg>