<svg xmlns:dc="http://purl.org/dc/elements/1.1/" xmlns:cc="http://creativecommons.org/ns#" xmlns:rdf="http://www.w3.org/1999/02/22-rdf-syntax-ns#" xmlns:svg="http://www.w3.org/2000/svg" xmlns="http://www.w3.org/2000/svg" xmlns:sodipodi="http://sodipodi.sourceforge.net/DTD/sodipodi-0.dtd" xmlns:inkscape="http://www.inkscape.org/namespaces/inkscape" version="1.1" viewBox="0 0 12.7 15.875" x="0px" y="0px"><g style="" display="inline"><path style="color:#000000;font-style:normal;font-variant:normal;font-weight:normal;font-stretch:normal;font-size:medium;line-height:normal;font-family:sans-serif;font-variant-ligatures:normal;font-variant-position:normal;font-variant-caps:normal;font-variant-numeric:normal;font-variant-alternates:normal;font-feature-settings:normal;text-indent:0;text-align:start;text-decoration:none;text-decoration-line:none;text-decoration-style:solid;text-decoration-color:#000000;letter-spacing:normal;word-spacing:normal;text-transform:none;writing-mode:lr-tb;direction:ltr;text-orientation:mixed;dominant-baseline:auto;baseline-shift:baseline;text-anchor:start;white-space:normal;shape-padding:0;clip-rule:nonzero;display:inline;overflow:visible;visibility:visible;opacity:1;isolation:auto;mix-blend-mode:normal;color-interpolation:sRGB;color-interpolation-filters:linearRGB;solid-color:#000000;solid-opacity:1;vector-effect:none;fill:#fff;fill-opacity:1;fill-rule:nonzero;stroke:none;stroke-width:1.05833328;stroke-linecap:round;stroke-linejoin:round;stroke-miterlimit:4;stroke-dasharray:none;stroke-dashoffset:0;stroke-opacity:1;paint-order:normal;color-rendering:auto;image-rendering:auto;shape-rendering:auto;text-rendering:auto;enable-background:accumulate" d="m 6.3500006,0.26406698 c -3.354615,0 -6.08593298,2.73131802 -6.08593298,6.08593302 0,3.354614 2.73131798,6.085933 6.08593298,6.085933 3.354615,0 6.0859334,-2.731319 6.0859334,-6.085933 0,-1.677308 -0.68219,-3.201934 -1.782836,-4.30258 C 9.5524516,0.94677298 8.0273076,0.26406698 6.3500006,0.26406698 Z m 0,1.05885002 c 1.391324,0 2.644502,0.562457 3.554822,1.472778 0.9103214,0.91032 1.4727784,2.16298 1.4727784,3.554305 0,0.916147 -0.247104,1.771828 -0.672827,2.510441 C 10.197378,7.23272 8.4075386,6.094202 6.3577526,6.094202 c -2.056217,0 -3.851891,1.1453 -4.352706,2.781225 C 1.5738246,8.133358 1.3229176,7.272503 1.3229176,6.35 c 0,-2.782649 2.244434,-5.027083 5.027083,-5.027083 z m 0.0078,0.536918 c -1.01661,0 -1.851567,0.837024 -1.851567,1.853633 0,1.01661 0.834957,1.851567 1.851567,1.851567 1.016609,0 1.851566,-0.834957 1.851566,-1.851567 0,-0.508304 -0.206489,-0.975951 -0.541052,-1.310514 -0.334564,-0.334563 -0.80221,-0.543119 -1.310514,-0.543119 z m 0,1.05885 c 0.222321,0 0.418517,0.08779 0.562756,0.232027 0.144238,0.144238 0.232544,0.340435 0.232544,0.562756 0,0.444644 -0.350657,0.792717 -0.7953,0.792717 -0.444644,0 -0.792717,-0.348073 -0.792717,-0.792717 0,-0.444643 0.348073,-0.794783 0.792717,-0.794783 z m 0,4.234367 c 1.971483,0 3.439583,1.242405 3.439583,2.64635 v 0.207739 c -0.458063,0.43183 -0.997116,0.777928 -1.592151,1.014925 V 9.755477 c 0.0034,-0.291649 -0.229777,-0.531068 -0.521415,-0.535368 -0.297707,-0.0044 -0.540418,0.23765 -0.536918,0.535368 v 1.553393 c -0.259913,0.04155 -0.524847,0.06873 -0.796851,0.06873 -0.26913,0 -0.531305,-0.02648 -0.788582,-0.06718 V 9.755476 c 0.0034,-0.291649 -0.229777,-0.531068 -0.521416,-0.535368 -0.297707,-0.0044 -0.540418,0.23765 -0.536918,0.535368 v 1.26969 C 3.9117786,10.790728 3.3754966,10.448574 2.9187336,10.021609 V 9.799401 c 0,-1.403945 1.467583,-2.64635 3.439067,-2.64635 z"/></g><text x="0" y="27.7" fill="#000000" font-size="5px" font-weight="bold" font-family="'Helvetica Neue', Helvetica, Arial-Unicode, Arial, Sans-serif">Created by Ranah Pixel Studio</text><text x="0" y="32.7" fill="#000000" font-size="5px" font-weight="bold" font-family="'Helvetica Neue', Helvetica, Arial-Unicode, Arial, Sans-serif">from the Noun Project</text></svg>